<svg width="36" height="36" viewBox="0 0 36 36" fill="none" xmlns="http://www.w3.org/2000/svg">
<mask id="mask0_58_2397" style="mask-type:alpha" maskUnits="userSpaceOnUse" x="0" y="0" width="36" height="36">
<rect width="36" height="36" fill="#D9D9D9"/>
</mask>
<g mask="url(#mask0_58_2397)">
<path d="M18.0002 35.2907L12.9304 30.3048H5.69532V23.0698L0.709473 17.9999L5.69532 12.9301V5.69501H12.9304L18.0002 0.700195L23.0701 5.69501H30.3051V12.9301L35.3 17.9999L30.3051 23.0698V30.3048H23.0701L18.0002 35.2907ZM18.0001 25.3923C20.0453 25.3923 21.7887 24.6716 23.2302 23.2301C24.6718 21.7886 25.3926 20.0452 25.3926 18C25.3926 15.9549 24.6719 14.2115 23.2304 12.7699C21.7889 11.3283 20.0455 10.6075 18.0003 10.6075C15.9552 10.6075 14.2118 11.3283 12.7702 12.7698C11.3286 14.2113 10.6079 15.9546 10.6079 17.9998C10.6079 20.045 11.3286 21.7884 12.7701 23.2299C14.2116 24.6715 15.9549 25.3923 18.0001 25.3923ZM18.0002 30.5167L21.6247 26.8923H26.8926V21.6244L30.5171 17.9999L26.8926 14.3755V9.10754H21.6247L18.0002 5.4831L14.3758 9.10754H9.10786V14.3755L5.48341 17.9999L9.10786 21.6244V26.8923H14.3758L18.0002 30.5167Z" fill="#2C2C2C"/>
</g>
</svg>
