<svg width="48" height="48" viewBox="0 0 48 48" fill="none" xmlns="http://www.w3.org/2000/svg">
<g id="Icon">
<path id="Vector" d="M13.0354 40.4068C9.86514 40.4068 7.17147 39.3083 4.95441 37.1112C2.73741 34.9141 1.62891 32.2304 1.62891 29.0601C1.62891 26.3644 2.44321 23.9851 4.07181 21.922C5.70044 19.859 7.75932 18.5401 10.2485 17.9655C11.1137 14.9336 12.8016 12.447 15.3121 10.5057C17.8226 8.56442 20.7184 7.59375 23.9996 7.59375C28.022 7.59375 31.3988 8.97473 34.13 11.7367C36.8612 14.4987 38.2666 17.8083 38.3463 21.6655C40.8463 22.0199 42.8086 23.121 44.2333 24.9688C45.6579 26.8166 46.3702 28.8264 46.3702 30.9981C46.3702 33.6017 45.4593 35.8208 43.6376 37.6552C41.8159 39.4896 39.6032 40.4068 36.9996 40.4068H13.0354ZM13.0474 35.8568H36.9637C38.3159 35.8568 39.4633 35.3854 40.4061 34.4427C41.3488 33.4999 41.8202 32.3525 41.8202 31.0003C41.8202 29.6481 41.3488 28.5007 40.4061 27.5579C39.4633 26.6152 38.3159 26.1438 36.9637 26.1438H33.8202V21.9644C33.8202 19.2456 32.8631 16.9291 30.949 15.015C29.0349 13.1009 26.7184 12.1438 23.9996 12.1438C21.9952 12.1438 20.2142 12.6829 18.6566 13.7611C17.099 14.8394 15.9448 16.2068 15.1941 17.8633C17.8499 18.3285 20.0552 19.6093 21.8099 21.7057C23.5646 23.8021 24.442 26.2336 24.442 29.0003H19.892C19.892 27.1068 19.2226 25.4907 17.8838 24.1519C16.545 22.8132 14.9289 22.1438 13.0354 22.1438C11.1419 22.1438 9.52582 22.8132 8.18706 24.1519C6.84829 25.4907 6.17891 27.1068 6.17891 29.0003C6.17891 30.8938 6.85029 32.5099 8.19306 33.8487C9.53579 35.1874 11.1539 35.8568 13.0474 35.8568Z" fill="#2C2C2C"/>
</g>
</svg>
