<svg width="48" height="48" viewBox="0 0 48 48" fill="none" xmlns="http://www.w3.org/2000/svg">
<g id="Icon">
<path id="Vector" d="M21.7158 10.1701V1.62012H26.2658V10.1701H21.7158ZM35.3506 15.8136L32.206 12.669L38.2006 6.54837L41.3952 9.76902L35.3506 15.8136ZM37.8115 26.2658V21.7158H46.3615V26.2658H37.8115ZM21.7158 46.3614V37.8114H26.2658V46.3614H21.7158ZM12.631 15.7375L6.54842 9.79292L9.79297 6.61032L15.8256 12.6429L12.631 15.7375ZM38.1506 41.4571L32.206 35.3006L35.3006 32.206L41.3832 38.0766L38.1506 41.4571ZM1.62012 26.2658V21.7158H10.1702V26.2658H1.62012ZM9.79297 41.4332L6.59842 38.1886L12.593 32.194L14.2343 33.7473L15.8876 35.3386L9.79297 41.4332ZM23.988 35.8951C20.6805 35.8951 17.87 34.7375 15.5566 32.4222C13.2432 30.1069 12.0865 27.2955 12.0865 23.988C12.0865 20.6804 13.2441 17.8699 15.5594 15.5565C17.8747 13.2431 20.6861 12.0864 23.9936 12.0864C27.3012 12.0864 30.1117 13.2441 32.4251 15.5594C34.7385 17.8746 35.8952 20.686 35.8952 23.9936C35.8952 27.3011 34.7375 30.1116 32.4222 32.425C30.1069 34.7384 27.2956 35.8951 23.988 35.8951ZM23.9908 31.3451C26.0234 31.3451 27.7573 30.6275 29.1924 29.1924C30.6276 27.7572 31.3452 26.0234 31.3452 23.9908C31.3452 21.9582 30.6276 20.2243 29.1924 18.7892C27.7573 17.354 26.0234 16.6364 23.9908 16.6364C21.9582 16.6364 20.2243 17.354 18.7892 18.7892C17.3541 20.2243 16.6365 21.9582 16.6365 23.9908C16.6365 26.0234 17.3541 27.7572 18.7892 29.1924C20.2243 30.6275 21.9582 31.3451 23.9908 31.3451Z" fill="#2C2C2C"/>
</g>
</svg>
