<svg width="36" height="36" viewBox="0 0 36 36" fill="none" xmlns="http://www.w3.org/2000/svg">
<path d="M17.9997 24C19.8747 24 21.4684 23.3438 22.7809 22.0313C24.0934 20.7188 24.7497 19.125 24.7497 17.25C24.7497 15.375 24.0934 13.7813 22.7809 12.4688C21.4684 11.1563 19.8747 10.5 17.9997 10.5C16.1247 10.5 14.5309 11.1563 13.2184 12.4688C11.9059 13.7813 11.2497 15.375 11.2497 17.25C11.2497 19.125 11.9059 20.7188 13.2184 22.0313C14.5309 23.3438 16.1247 24 17.9997 24ZM18.0012 21.1117C16.929 21.1117 16.0171 20.7364 15.2654 19.9858C14.5138 19.2353 14.138 18.3239 14.138 17.2516C14.138 16.1794 14.5133 15.2674 15.2639 14.5158C16.0144 13.7642 16.9258 13.3884 17.9981 13.3884C19.0703 13.3884 19.9823 13.7636 20.7339 14.5142C21.4855 15.2648 21.8613 16.1762 21.8613 17.2485C21.8613 18.3207 21.4861 19.2326 20.7355 19.9843C19.9849 20.7359 19.0735 21.1117 18.0012 21.1117ZM17.9997 28.778C14.2779 28.778 10.8946 27.7294 7.8498 25.6321C4.80496 23.5348 2.59558 20.7408 1.22168 17.25C2.59558 13.7593 4.80496 10.9653 7.8498 8.86796C10.8946 6.77069 14.2779 5.72205 17.9997 5.72205C21.7214 5.72205 25.1047 6.77069 28.1495 8.86796C31.1944 10.9653 33.4038 13.7593 34.7777 17.25C33.4038 20.7408 31.1944 23.5348 28.1495 25.6321C25.1047 27.7294 21.7214 28.778 17.9997 28.778ZM18.0005 25.5C20.819 25.5 23.4065 24.7548 25.763 23.2643C28.1195 21.7738 29.9228 19.7691 31.1728 17.25C29.9228 14.731 28.1192 12.7263 25.7622 11.2358C23.4051 9.74528 20.8174 9.00003 17.9989 9.00003C15.1804 9.00003 12.5929 9.74528 10.2363 11.2358C7.87982 12.7263 6.07655 14.731 4.82655 17.25C6.07655 19.7691 7.88009 21.7738 10.2372 23.2643C12.5942 24.7548 15.182 25.5 18.0005 25.5Z" fill="#2C2C2C"/>
</svg>
