<svg width="56" height="56" viewBox="0 0 56 56" fill="none" xmlns="http://www.w3.org/2000/svg">
<g id="Icon">
<path id="Vector" d="M25.3454 11.8754V1.90039H30.6537V11.8754H25.3454ZM41.2527 18.4595L37.5396 14.7464L44.5776 7.65002L48.2907 11.4214L41.2527 18.4595ZM44.1236 30.6537V25.3453H54.0986V30.6537H44.1236ZM44.5776 48.3046L37.5396 41.2386L41.2527 37.5256L48.349 44.5193L44.5776 48.3046ZM14.7464 18.4595L7.70841 11.4214L11.4798 7.66396L18.4595 14.7464L14.7464 18.4595ZM13.9995 44.012H24.4717C25.3509 44.012 26.1005 43.7019 26.7206 43.0818C27.3408 42.4617 27.6508 41.7121 27.6508 40.8328C27.6508 39.9443 27.3505 39.19 26.7498 38.5699C26.1491 37.9498 25.4046 37.6397 24.5161 37.6397H21.3736L20.1233 34.6584C19.6067 33.4401 18.7907 32.4728 17.6752 31.7563C16.5597 31.0398 15.3344 30.6815 13.9995 30.6815C12.1481 30.6815 10.572 31.3272 9.2714 32.6186C7.97072 33.91 7.32038 35.4814 7.32038 37.3328C7.32038 39.1936 7.96839 40.772 9.2644 42.068C10.5604 43.364 12.1388 44.012 13.9995 44.012ZM13.9995 49.3203C10.6788 49.3203 7.85067 48.1526 5.5152 45.8172C3.17976 43.4817 2.01205 40.6536 2.01205 37.3328C2.01205 33.9934 3.20535 31.1607 5.59196 28.8345C7.97854 26.5084 10.8508 25.3546 14.2088 25.3732C16.5328 25.3732 18.6527 26.0075 20.5684 27.276C22.4841 28.5446 23.9226 30.239 24.8838 32.3593C27.1579 32.3593 29.0724 33.2 30.6271 34.8815C32.1818 36.5631 32.9592 38.5798 32.9592 40.9318C32.9372 43.2786 32.1062 45.2634 30.4661 46.8862C28.826 48.5089 26.8371 49.3203 24.4995 49.3203H13.9995ZM32.9592 40.9318C32.6996 40.0702 32.4377 39.2259 32.1735 38.3987C31.9094 37.5714 31.6429 36.7271 31.374 35.8656C32.9473 35.1732 34.2082 34.119 35.1568 32.7029C36.1053 31.2868 36.5796 29.719 36.5796 27.9995C36.5796 25.6281 35.7424 23.6053 34.0681 21.931C32.3938 20.2566 30.3709 19.4194 27.9995 19.4194C25.8615 19.4194 23.9872 20.1126 22.3767 21.4991C20.7662 22.8856 19.8147 24.6432 19.5222 26.772C18.6514 26.5217 17.7659 26.2886 16.8655 26.0726C15.9651 25.8566 15.0796 25.6235 14.2088 25.3732C14.7905 22.0533 16.39 19.3463 19.0073 17.2522C21.6247 15.1581 24.6221 14.1111 27.9995 14.1111C31.8606 14.1111 35.1405 15.4606 37.8395 18.1595C40.5385 20.8585 41.888 24.1385 41.888 27.9995C41.888 30.9009 41.0719 33.5219 39.4399 35.8624C37.8078 38.2029 35.6476 39.8927 32.9592 40.9318Z" fill="#2C2C2C"/>
</g>
</svg>
