<svg width="36" height="36" viewBox="0 0 36 36" fill="none" xmlns="http://www.w3.org/2000/svg">
<mask id="mask0_58_2376" style="mask-type:alpha" maskUnits="userSpaceOnUse" x="0" y="0" width="36" height="36">
<rect width="36" height="36" fill="#D9D9D9"/>
</mask>
<g mask="url(#mask0_58_2376)">
<path d="M28.6615 11.8567C28.2306 11.8567 27.8654 11.707 27.5659 11.4075C27.2664 11.108 27.1167 10.7428 27.1167 10.3118C27.1167 10.0999 27.162 9.90017 27.2524 9.71267C27.3429 9.52517 27.4533 9.36628 27.5836 9.236C27.8963 8.92333 28.6035 8.57502 29.7054 8.19107L31.3583 7.6151C31.1583 8.20803 30.9648 8.76048 30.7779 9.27245C30.6239 9.70853 30.4506 10.1318 30.2582 10.5422C30.0657 10.9527 29.8924 11.2348 29.7385 11.3888C29.6075 11.5197 29.4482 11.6305 29.2607 11.7209C29.0732 11.8114 28.8735 11.8567 28.6615 11.8567ZM5.86562 31.8947C4.92717 31.8947 4.12381 31.5606 3.45554 30.8923C2.78726 30.224 2.45312 29.4207 2.45312 28.4822V7.56294C2.45312 6.62449 2.78726 5.82113 3.45554 5.15285C4.12381 4.48458 4.92717 4.15044 5.86562 4.15044H14.4531C15.3916 4.15044 16.1949 4.48458 16.8632 5.15285C17.5315 5.82113 17.8656 6.62449 17.8656 7.56294V19.7806C18.1026 19.6996 18.348 19.6341 18.6019 19.5841C18.8557 19.5341 19.1223 19.5091 19.4015 19.5091C20.6874 19.5091 21.7857 19.9646 22.6966 20.8754C23.6075 21.7863 24.0629 22.8847 24.0629 24.1706V27.2423C24.0629 27.6733 24.2067 28.0325 24.4942 28.32C24.7817 28.6075 25.1406 28.7513 25.5709 28.7513C26.0013 28.7513 26.362 28.6075 26.6532 28.32C26.9443 28.0325 27.0898 27.6733 27.0898 27.2423V19.5629H25.5719V17.3615C24.186 16.7694 23.0701 15.8439 22.2242 14.5851C21.3782 13.3264 20.9553 11.9006 20.9553 10.3079C20.9553 8.17577 21.7069 6.35899 23.2102 4.85761C24.7135 3.35626 26.5316 2.60559 28.6644 2.60559C30.7973 2.60559 32.6144 3.35687 34.1158 4.85942C35.6171 6.36197 36.3678 8.17914 36.3678 10.3109C36.3678 11.9034 35.9438 13.3291 35.0958 14.588C34.2478 15.8469 33.1299 16.7718 31.7423 17.3627V19.5629H30.2243V27.2423C30.2243 28.5282 29.7704 29.625 28.8625 30.5329C27.9546 31.4408 26.8577 31.8947 25.5719 31.8947C24.286 31.8947 23.1906 31.4408 22.2858 30.5329C21.3808 29.625 20.9284 28.5282 20.9284 27.2423V24.1706C20.9284 23.7379 20.7822 23.3753 20.4899 23.0826C20.1976 22.79 19.8354 22.6436 19.4032 22.6436C18.9711 22.6436 18.6068 22.79 18.3103 23.0826C18.0139 23.3753 17.8656 23.7379 17.8656 24.1706V28.4822C17.8656 29.4207 17.5315 30.224 16.8632 30.8923C16.1949 31.5606 15.3916 31.8947 14.4531 31.8947H5.86562ZM28.6658 14.8836C29.9369 14.8836 31.0144 14.4387 31.8984 13.5489C32.7823 12.6592 33.2243 11.5787 33.2243 10.3076C33.2243 9.03654 32.7823 7.959 31.8984 7.07503C31.0144 6.19105 29.9369 5.74907 28.6658 5.74907C27.3947 5.74907 26.3142 6.19105 25.4245 7.07503C24.5347 7.959 24.0898 9.03654 24.0898 10.3076C24.0898 11.5787 24.5347 12.6592 25.4245 13.5489C26.3142 14.4387 27.3947 14.8836 28.6658 14.8836ZM5.5966 28.7513H14.7311V25.8589L11.6504 28.9396V24.4331L14.7311 21.3523V18.1526L11.6504 21.2333V16.7268L14.7311 13.6461V10.4464L11.6504 13.5271V9.02053L13.377 7.28495H6.95965L8.6773 9.02053V13.5271L5.5966 10.4464V13.6461L8.6773 16.7268V21.2333L5.5966 18.1526V21.3523L8.6773 24.4331V28.9396L5.5966 25.8589V28.7513Z" fill="#2C2C2C"/>
</g>
</svg>
