<svg width="24" height="21" viewBox="0 0 24 21" fill="none" xmlns="http://www.w3.org/2000/svg">
<path d="M11.4168 20.3333C10.4446 20.3333 9.61822 19.9931 8.93766 19.3125C8.25711 18.6319 7.91683 17.8056 7.91683 16.8333H10.2502C10.2502 17.1639 10.362 17.441 10.5856 17.6646C10.8092 17.8882 11.0863 18 11.4168 18C11.7474 18 12.0245 17.8882 12.2481 17.6646C12.4717 17.441 12.5835 17.1639 12.5835 16.8333C12.5835 16.5028 12.4717 16.2257 12.2481 16.0021C12.0245 15.7785 11.7474 15.6667 11.4168 15.6667H0.333496V13.3333H11.4168C12.3891 13.3333 13.2154 13.6736 13.896 14.3542C14.5766 15.0347 14.9168 15.8611 14.9168 16.8333C14.9168 17.8056 14.5766 18.6319 13.896 19.3125C13.2154 19.9931 12.3891 20.3333 11.4168 20.3333ZM0.333496 8.66667V6.33333H16.0835C16.5891 6.33333 17.0071 6.16806 17.3377 5.8375C17.6682 5.50694 17.8335 5.08889 17.8335 4.58333C17.8335 4.07778 17.6682 3.65972 17.3377 3.32917C17.0071 2.99861 16.5891 2.83333 16.0835 2.83333C15.5779 2.83333 15.1599 2.99861 14.8293 3.32917C14.4988 3.65972 14.3335 4.07778 14.3335 4.58333H12.0002C12.0002 3.43611 12.3939 2.46875 13.1814 1.68125C13.9689 0.89375 14.9363 0.5 16.0835 0.5C17.2307 0.5 18.1981 0.89375 18.9856 1.68125C19.7731 2.46875 20.1668 3.43611 20.1668 4.58333C20.1668 5.73056 19.7731 6.69792 18.9856 7.48542C18.1981 8.27292 17.2307 8.66667 16.0835 8.66667H0.333496ZM19.5835 18V15.6667C20.0891 15.6667 20.5071 15.5014 20.8377 15.1708C21.1682 14.8403 21.3335 14.4222 21.3335 13.9167C21.3335 13.4111 21.1682 12.9931 20.8377 12.6625C20.5071 12.3319 20.0891 12.1667 19.5835 12.1667H0.333496V9.83333H19.5835C20.7307 9.83333 21.6981 10.2271 22.4856 11.0146C23.2731 11.8021 23.6668 12.7694 23.6668 13.9167C23.6668 15.0639 23.2731 16.0312 22.4856 16.8188C21.6981 17.6062 20.7307 18 19.5835 18Z" fill="#2C2C2C"/>
</svg>
