<svg width="36" height="36" viewBox="0 0 36 36" fill="none" xmlns="http://www.w3.org/2000/svg">
<path d="M7.60785 33.3051C6.66327 33.3051 5.85837 32.9725 5.19315 32.3073C4.52792 31.6421 4.19531 30.8372 4.19531 29.8926V9.10785C4.19531 8.16327 4.52792 7.35838 5.19315 6.69315C5.85837 6.02793 6.66327 5.69531 7.60785 5.69531H9.00023V2.69531H12.2065V5.69531H23.794V2.69531H27.0002V5.69531H28.3926C29.3372 5.69531 30.1421 6.02793 30.8073 6.69315C31.4725 7.35838 31.8051 8.16327 31.8051 9.10785V29.8926C31.8051 30.8372 31.4725 31.6421 30.8073 32.3073C30.1421 32.9725 29.3372 33.3051 28.3926 33.3051H7.60785ZM7.60785 29.8926H28.3926V15.0002H7.60785V29.8926ZM7.60785 12.0002H28.3926V9.10785H7.60785V12.0002Z" fill="#2C2C2C"/>
</svg>
