<svg width="48" height="48" viewBox="0 0 48 48" fill="none" xmlns="http://www.w3.org/2000/svg">
<g id="Icon">
<path id="Vector" d="M13.0354 40.4068C9.88997 40.4068 7.20254 39.321 4.97311 37.1492C2.74364 34.9775 1.62891 32.3231 1.62891 29.1861C1.62891 26.5064 2.41821 24.1121 3.99681 22.003C5.57544 19.8939 7.65932 18.5481 10.2485 17.9655C11.1296 14.867 12.8401 12.3637 15.38 10.4557C17.9198 8.54775 20.793 7.59375 23.9996 7.59375C27.9394 7.59375 31.2936 8.95608 34.0621 11.6807C36.8305 14.4054 38.2586 17.7336 38.3463 21.6655C40.6702 22.0199 42.5885 23.0833 44.1012 24.8557C45.6139 26.6282 46.3702 28.6884 46.3702 31.0361C46.3702 33.6391 45.4592 35.8516 43.6371 37.6737C41.815 39.4958 39.6025 40.4068 36.9996 40.4068H13.0354ZM13.0354 35.8568H36.9637C38.3159 35.8568 39.4633 35.3854 40.4061 34.4427C41.3488 33.4999 41.8202 32.3525 41.8202 31.0003C41.8202 29.6481 41.3488 28.5007 40.4061 27.5579C39.4633 26.6152 38.3159 26.1438 36.9637 26.1438H33.8202V21.9644C33.8202 19.2474 32.8627 16.9313 30.9477 15.0163C29.0326 13.1013 26.7166 12.1438 23.9996 12.1438C21.2648 12.1438 18.9443 13.1228 17.0382 15.0807C15.132 17.0387 14.1789 19.3931 14.1789 22.1438H13.0354C11.1417 22.1438 9.52554 22.8131 8.18691 24.1517C6.84824 25.4903 6.17891 27.1064 6.17891 29C6.17891 30.8937 6.84824 32.5099 8.18691 33.8487C9.52554 35.1874 11.1417 35.8568 13.0354 35.8568Z" fill="#2C2C2C"/>
</g>
</svg>
