<svg width="36" height="36" viewBox="0 0 36 36" fill="none" xmlns="http://www.w3.org/2000/svg">
<path d="M9.77656 30.3051C7.41748 30.3051 5.4019 29.4907 3.72983 27.8619C2.05773 26.2331 1.22168 24.2423 1.22168 21.8896C1.22168 19.8798 1.81365 18.0841 2.9976 16.5023C4.18158 14.9205 5.74449 13.9111 7.68634 13.4741C8.34722 11.1502 9.63011 9.27279 11.535 7.84181C13.4399 6.41081 15.5948 5.69531 17.9997 5.69531C20.9546 5.69531 23.4702 6.71706 25.5465 8.76056C27.6229 10.804 28.694 13.3002 28.7597 16.2491C30.5027 16.5149 31.9414 17.3125 33.0759 18.6418C34.2104 19.9712 34.7777 21.5163 34.7777 23.2771C34.7777 25.2293 34.0944 26.8887 32.7278 28.2553C31.3613 29.6219 29.7019 30.3051 27.7497 30.3051H9.77656ZM9.77656 26.8926H27.7228C28.7369 26.8926 29.5975 26.5391 30.3045 25.832C31.0116 25.125 31.3652 24.2643 31.3652 23.2502C31.3652 22.2361 31.0116 21.3755 30.3045 20.6684C29.5975 19.9614 28.7369 19.6078 27.7228 19.6078H25.3652V16.4733C25.3652 14.4355 24.647 12.6985 23.2107 11.2622C21.7745 9.82597 20.0374 9.10785 17.9997 9.10785C15.9486 9.10785 14.2082 9.84209 12.7786 11.3106C11.349 12.779 10.6342 14.5448 10.6342 16.6078H9.77656C8.35628 16.6078 7.14415 17.1098 6.14018 18.1138C5.13618 19.1177 4.63418 20.3298 4.63418 21.75C4.63418 23.1703 5.13618 24.3824 6.14018 25.3865C7.14415 26.3906 8.35628 26.8926 9.77656 26.8926Z" fill="#2C2C2C"/>
</svg>
