<svg width="56" height="56" viewBox="0 0 56 56" fill="none" xmlns="http://www.w3.org/2000/svg">
<g id="Icon">
<path id="Vector" d="M32.689 51.9234C32.022 52.2624 31.3429 52.3133 30.6518 52.0762C29.9607 51.8391 29.4456 51.387 29.1066 50.72L25.6066 43.72C25.2676 43.0622 25.219 42.3878 25.4608 41.6967C25.7026 41.0056 26.1547 40.4905 26.817 40.1514C27.4794 39.8124 28.1562 39.7615 28.8473 39.9987C29.5384 40.2358 30.0535 40.6832 30.3925 41.341L33.8925 48.341C34.2315 49.008 34.2824 49.6871 34.0453 50.3782C33.8082 51.0693 33.3561 51.5844 32.689 51.9234ZM46.689 51.9234C46.022 52.2624 45.3429 52.3133 44.6518 52.0762C43.9607 51.8391 43.4456 51.387 43.1066 50.72L39.6066 43.72C39.2676 43.0622 39.219 42.3878 39.4608 41.6967C39.7026 41.0056 40.1547 40.4905 40.817 40.1514C41.4794 39.8124 42.1562 39.7615 42.8473 39.9987C43.5384 40.2358 44.0535 40.6832 44.3925 41.341L47.8925 48.341C48.2315 49.008 48.2824 49.6871 48.0453 50.3782C47.8082 51.0693 47.3561 51.5844 46.689 51.9234ZM18.689 51.9234C18.022 52.2624 17.3429 52.3133 16.6518 52.0762C15.9607 51.8391 15.4456 51.387 15.1066 50.72L11.6066 43.72C11.2676 43.0622 11.219 42.3878 11.4608 41.6967C11.7026 41.0056 12.1547 40.4905 12.817 40.1514C13.4794 39.8124 14.1562 39.7615 14.8473 39.9987C15.5384 40.2358 16.0535 40.6832 16.3925 41.341L19.8925 48.341C20.2315 49.008 20.2824 49.6871 20.0453 50.3782C19.8082 51.0693 19.3561 51.5844 18.689 51.9234ZM17.4995 37.4453C13.877 37.4453 10.779 36.1586 8.20552 33.5851C5.63209 31.0117 4.34538 27.9137 4.34538 24.2911C4.34538 21.0075 5.42411 18.1346 7.58159 15.6724C9.73907 13.2101 12.4114 11.7465 15.5986 11.2815C16.8803 9.06484 18.6189 7.31992 20.8144 6.04674C23.0099 4.77355 25.4048 4.13696 27.999 4.13696C31.5366 4.13696 34.6193 5.25502 37.2473 7.49113C39.8753 9.72724 41.4894 12.5268 42.0896 15.8898C44.8008 16.179 47.0727 17.3385 48.9051 19.3683C50.7375 21.3981 51.6537 23.8168 51.6537 26.6245C51.6537 29.6248 50.6017 32.1784 48.4976 34.2851C46.3936 36.3919 43.8387 37.4453 40.8329 37.4453H17.4995ZM17.4995 32.137H40.8329C42.3764 32.137 43.681 31.6044 44.7467 30.5393C45.8125 29.4742 46.3454 28.1704 46.3454 26.6278C46.3454 25.0852 45.8125 23.7803 44.7467 22.713C43.681 21.6456 42.3764 21.112 40.8329 21.112H37.012V18.4578C37.012 15.9794 36.1297 13.8577 34.3649 12.0927C32.6002 10.3278 30.4787 9.4453 28.0006 9.4453C26.1983 9.4453 24.5547 9.93457 23.0697 10.9131C21.5848 11.8917 20.4673 13.204 19.7175 14.85L19.0544 16.4453H17.3968C15.2647 16.52 13.4411 17.3134 11.9261 18.8256C10.4112 20.3379 9.65371 22.1582 9.65371 24.2865C9.65371 26.4521 10.4196 28.302 11.9514 29.8359C13.4832 31.37 15.3326 32.137 17.4995 32.137Z" fill="#2C2C2C"/>
</g>
</svg>
