<svg width="36" height="36" viewBox="0 0 36 36" fill="none" xmlns="http://www.w3.org/2000/svg">
<mask id="mask0_58_2383" style="mask-type:alpha" maskUnits="userSpaceOnUse" x="0" y="0" width="36" height="36">
<rect width="36" height="36" fill="#D9D9D9"/>
</mask>
<g mask="url(#mask0_58_2383)">
<path d="M7.47887 17.9397C7.05605 18.1637 6.62249 18.1979 6.17819 18.0425C5.73389 17.887 5.39979 17.5979 5.17589 17.1751L1.4707 9.76475C1.2468 9.34192 1.21256 8.90836 1.36799 8.46406C1.52344 8.01978 1.81256 7.68867 2.23536 7.47072C2.65821 7.25279 3.09177 7.22006 3.53605 7.37251C3.98035 7.52496 4.31147 7.8126 4.52942 8.23542L8.23458 15.6457C8.4525 16.0685 8.48674 16.5006 8.33729 16.9419C8.18784 17.3832 7.9017 17.7158 7.47887 17.9397ZM12.7737 28.5294C12.3509 28.7533 11.9158 28.7891 11.4685 28.6366C11.0213 28.4842 10.6857 28.1936 10.4617 27.7647L7.50659 21.8544C7.28864 21.4316 7.25739 20.9995 7.41284 20.5582C7.56826 20.1169 7.85739 19.7843 8.28021 19.5604C8.70304 19.3365 9.13511 19.3023 9.57644 19.4577C10.0177 19.6131 10.3503 19.9023 10.5742 20.3251L13.5384 26.2354C13.7563 26.6582 13.789 27.0903 13.6366 27.5316C13.4842 27.9729 13.1965 28.3055 12.7737 28.5294ZM15.7949 20.9397C15.3721 21.1637 14.9385 21.1979 14.4942 21.0425C14.0499 20.887 13.7158 20.5979 13.4919 20.1751L8.28674 9.76475C8.06284 9.34192 8.0286 8.90836 8.18402 8.46406C8.33945 8.01978 8.62859 7.68867 9.05144 7.47072C9.47426 7.25279 9.90781 7.22006 10.3521 7.37251C10.7964 7.52496 11.1305 7.8126 11.3544 8.23542L16.5596 18.6457C16.7775 19.0685 16.8103 19.5006 16.6578 19.9419C16.5054 20.3832 16.2177 20.7158 15.7949 20.9397ZM19.0289 13.4397C18.6061 13.6637 18.1725 13.6994 17.7282 13.547C17.2839 13.3945 16.9498 13.1039 16.7259 12.6751L15.2992 9.76475C15.0813 9.34192 15.0501 8.90836 15.2055 8.46406C15.3609 8.01978 15.6501 7.68568 16.0729 7.46176C16.4957 7.23786 16.923 7.20512 17.3548 7.36355C17.7866 7.52197 18.1145 7.8126 18.3384 8.23542L19.7935 11.1457C20.0115 11.5685 20.0442 12.0006 19.8918 12.4419C19.7393 12.8832 19.4517 13.2158 19.0289 13.4397ZM19.9737 28.4919C19.5509 28.7158 19.1158 28.7563 18.6685 28.6134C18.2213 28.4705 17.8857 28.1876 17.6617 27.7647L16.2066 24.8544C15.9827 24.4316 15.9499 23.9981 16.1083 23.5538C16.2668 23.1095 16.5574 22.7754 16.9802 22.5515C17.403 22.3335 17.8351 22.3023 18.2764 22.4577C18.7177 22.6131 19.0503 22.9023 19.2742 23.3251L20.7384 26.2265C20.9623 26.6493 20.9965 27.0766 20.8411 27.5084C20.6857 27.9402 20.3965 28.268 19.9737 28.4919ZM26.9487 28.4919C26.5259 28.7158 26.0923 28.7563 25.648 28.6134C25.2037 28.4705 24.8696 28.1876 24.6457 27.7647L19.4405 17.3544C19.2226 16.9316 19.1899 16.4995 19.3423 16.0582C19.4948 15.6169 19.7824 15.2843 20.2052 15.0604C20.628 14.8365 21.0616 14.8023 21.5059 14.9577C21.9502 15.1131 22.2843 15.4023 22.5082 15.8251L27.7134 26.2265C27.9313 26.6493 27.964 27.0766 27.8116 27.5084C27.6592 27.9402 27.3715 28.268 26.9487 28.4919ZM29.2289 19.4397C28.806 19.6637 28.371 19.6979 27.9237 19.5425C27.4764 19.387 27.1408 19.0979 26.9169 18.6751L22.4617 9.76475C22.2378 9.34192 22.2051 8.90836 22.3635 8.46406C22.5219 8.01978 22.8126 7.68568 23.2354 7.46176C23.6582 7.23786 24.0903 7.20512 24.5316 7.36355C24.9729 7.52197 25.3055 7.8126 25.5294 8.23542L29.9846 17.1457C30.2025 17.5685 30.2367 18.0006 30.0873 18.4419C29.9378 18.8832 29.6517 19.2158 29.2289 19.4397ZM33.7737 28.5294C33.3509 28.7533 32.9158 28.7876 32.4685 28.6322C32.0213 28.4767 31.6857 28.1876 31.4617 27.7647L29.2566 23.3544C29.0327 22.9316 28.9999 22.4981 29.1583 22.0538C29.3168 21.6095 29.6074 21.2754 30.0302 21.0515C30.453 20.8275 30.8851 20.7948 31.3264 20.9532C31.7677 21.1116 32.1003 21.4023 32.3242 21.8251L34.5294 26.2354C34.7473 26.6582 34.7816 27.0903 34.6321 27.5316C34.4827 27.9729 34.1965 28.3055 33.7737 28.5294Z" fill="#2C2C2C"/>
</g>
</svg>
