<svg width="36" height="36" viewBox="0 0 36 36" fill="none" xmlns="http://www.w3.org/2000/svg">
<mask id="mask0_58_2364" style="mask-type:alpha" maskUnits="userSpaceOnUse" x="0" y="0" width="36" height="36">
<rect width="36" height="36" fill="#D9D9D9"/>
</mask>
<g mask="url(#mask0_58_2364)">
<path d="M18.0002 33.3049C14.4882 33.3049 11.5594 32.1007 9.21375 29.6925C6.86812 27.2842 5.69531 24.2867 5.69531 20.7H9.10785C9.10785 23.3451 9.9478 25.5384 11.6277 27.28C13.3076 29.0216 15.4322 29.8924 18.0015 29.8924C20.5707 29.8924 22.6949 29.0213 24.374 27.2792C26.0531 25.5371 26.8926 23.344 26.8926 20.7H30.3051C30.3051 24.2897 29.1323 27.2879 26.7867 29.6947C24.4411 32.1015 21.5122 33.3049 18.0002 33.3049ZM7.28659 18.287C6.83661 18.287 6.45891 18.1348 6.15349 17.8304C5.84804 17.526 5.69531 17.1488 5.69531 16.6989C5.69531 16.2489 5.84751 15.8712 6.15191 15.5658C6.45629 15.2604 6.83346 15.1076 7.28344 15.1076C7.73339 15.1076 8.11109 15.2598 8.41654 15.5642C8.72196 15.8686 8.87467 16.2458 8.87467 16.6957C8.87467 17.1457 8.72249 17.5234 8.41811 17.8288C8.11371 18.1343 7.73654 18.287 7.28659 18.287ZM14.2339 18.287C13.7839 18.287 13.4062 18.1348 13.1008 17.8304C12.7953 17.526 12.6426 17.1488 12.6426 16.6989C12.6426 16.2489 12.7948 15.8712 13.0992 15.5658C13.4036 15.2604 13.7808 15.1076 14.2307 15.1076C14.6807 15.1076 15.0584 15.2598 15.3638 15.5642C15.6693 15.8686 15.822 16.2458 15.822 16.6957C15.822 17.1457 15.6698 17.5234 15.3654 17.8288C15.061 18.1343 14.6838 18.287 14.2339 18.287ZM21.7518 18.287C21.3018 18.287 20.9241 18.1348 20.6187 17.8304C20.3133 17.526 20.1606 17.1488 20.1606 16.6989C20.1606 16.2489 20.3127 15.8712 20.6171 15.5658C20.9215 15.2604 21.2987 15.1076 21.7486 15.1076C22.1986 15.1076 22.5763 15.2598 22.8818 15.5642C23.1872 15.8686 23.3399 16.2458 23.3399 16.6957C23.3399 17.1457 23.1877 17.5234 22.8833 17.8288C22.5789 18.1343 22.2017 18.287 21.7518 18.287ZM28.717 18.287C28.2671 18.287 27.8894 18.1348 27.5839 17.8304C27.2785 17.526 27.1258 17.1488 27.1258 16.6989C27.1258 16.2489 27.278 15.8712 27.5823 15.5658C27.8867 15.2604 28.2639 15.1076 28.7139 15.1076C29.1638 15.1076 29.5415 15.2598 29.847 15.5642C30.1524 15.8686 30.3051 16.2458 30.3051 16.6957C30.3051 17.1457 30.1529 17.5234 29.8485 17.8288C29.5442 18.1343 29.167 18.287 28.717 18.287ZM10.7692 14.0095C10.3192 14.0095 9.94152 13.8573 9.63607 13.5529C9.33065 13.2485 9.17794 12.8714 9.17794 12.4214C9.17794 11.9714 9.33013 11.5937 9.6345 11.2883C9.9389 10.9829 10.3161 10.8301 10.766 10.8301C11.216 10.8301 11.5937 10.9823 11.8991 11.2867C12.2046 11.5911 12.3573 11.9683 12.3573 12.4183C12.3573 12.8682 12.2051 13.2459 11.9007 13.5514C11.5963 13.8568 11.2191 14.0095 10.7692 14.0095ZM25.2344 14.0095C24.7844 14.0095 24.4067 13.8573 24.1013 13.5529C23.7959 13.2485 23.6432 12.8714 23.6432 12.4214C23.6432 11.9714 23.7953 11.5937 24.0998 11.2883C24.4041 10.9829 24.7813 10.8301 25.2313 10.8301C25.6812 10.8301 26.0589 10.9823 26.3644 11.2867C26.6698 11.5911 26.8225 11.9683 26.8225 12.4183C26.8225 12.8682 26.6703 13.2459 26.3659 13.5514C26.0616 13.8568 25.6844 14.0095 25.2344 14.0095ZM18.0018 13.7242C17.5518 13.7242 17.1741 13.572 16.8687 13.2676C16.5633 12.9632 16.4106 12.586 16.4106 12.1361C16.4106 11.6861 16.5627 11.3084 16.8671 11.003C17.1715 10.6975 17.5487 10.5448 17.9986 10.5448C18.4486 10.5448 18.8263 10.697 19.1318 11.0014C19.4372 11.3058 19.5899 11.683 19.5899 12.1329C19.5899 12.5829 19.4377 12.9606 19.1333 13.266C18.8289 13.5714 18.4517 13.7242 18.0018 13.7242ZM14.2428 9.74998C13.7929 9.74998 13.4152 9.5978 13.1097 9.29342C12.8043 8.98902 12.6516 8.61185 12.6516 8.1619C12.6516 7.71192 12.8038 7.33422 13.1082 7.0288C13.4125 6.72335 13.7897 6.57062 14.2397 6.57062C14.6896 6.57062 15.0673 6.72282 15.3728 7.02722C15.6782 7.3316 15.8309 7.70877 15.8309 8.15875C15.8309 8.6087 15.6787 8.9864 15.3744 9.29185C15.07 9.59727 14.6928 9.74998 14.2428 9.74998ZM21.7608 9.74998C21.3108 9.74998 20.9331 9.5978 20.6277 9.29342C20.3222 8.98902 20.1695 8.61185 20.1695 8.1619C20.1695 7.71192 20.3217 7.33422 20.6261 7.0288C20.9305 6.72335 21.3077 6.57062 21.7576 6.57062C22.2076 6.57062 22.5853 6.72282 22.8907 7.02722C23.1961 7.3316 23.3489 7.70877 23.3489 8.15875C23.3489 8.6087 23.1967 8.9864 22.8923 9.29185C22.5879 9.59727 22.2107 9.74998 21.7608 9.74998ZM18.0018 5.82062C17.5518 5.82062 17.1741 5.66843 16.8687 5.36406C16.5633 5.05966 16.4106 4.68248 16.4106 4.23253C16.4106 3.78256 16.5627 3.40486 16.8671 3.09943C17.1715 2.79401 17.5487 2.6413 17.9986 2.6413C18.4486 2.6413 18.8263 2.79348 19.1318 3.09786C19.4372 3.40223 19.5899 3.77941 19.5899 4.22938C19.5899 4.67933 19.4377 5.05703 19.1333 5.36248C18.8289 5.66791 18.4517 5.82062 18.0018 5.82062Z" fill="#2C2C2C"/>
</g>
</svg>
