<svg width="48" height="48" viewBox="0 0 48 48" fill="none" xmlns="http://www.w3.org/2000/svg">
<g id="Icon">
<path id="Vector" d="M23.1235 48.0002L27.7757 42.71L23.7757 40.71L29.6235 34.0002H35.4257L30.7736 39.2904L34.7736 41.2904L28.9257 48.0002H23.1235ZM10.5735 48.0002L15.2257 42.71L11.2257 40.71L17.0735 34.0002H22.8757L18.2235 39.2904L22.2235 41.2904L16.3757 48.0002H10.5735ZM14.9996 32.0959C11.8945 32.0959 9.23911 30.993 7.03331 28.7872C4.82751 26.5814 3.72461 23.926 3.72461 20.8209C3.72461 18.0064 4.64924 15.5439 6.49851 13.4334C8.34778 11.3229 10.6384 10.0684 13.3703 9.6698C14.4688 7.7698 15.959 6.27415 17.8409 5.18285C19.7228 4.09155 21.7756 3.5459 23.9992 3.5459C27.0314 3.5459 29.6737 4.50423 31.9263 6.4209C34.1788 8.33756 35.5623 10.7372 36.0768 13.6198C38.4007 13.8676 40.348 14.8615 41.9187 16.6013C43.4893 18.3412 44.2746 20.4144 44.2746 22.8209C44.2746 25.3926 43.3729 27.5814 41.5694 29.3872C39.7659 31.193 37.576 32.0959 34.9996 32.0959H14.9996ZM14.9996 27.5459H34.9996C36.3226 27.5459 37.4409 27.0894 38.3544 26.1764C39.2679 25.2635 39.7246 24.1459 39.7246 22.8237C39.7246 21.5015 39.2679 20.383 38.3544 19.4682C37.4409 18.5533 36.3226 18.0959 34.9996 18.0959H31.7246V15.8209C31.7246 13.6965 30.9683 11.8779 29.4557 10.3651C27.943 8.8523 26.1246 8.0959 24.0005 8.0959C22.4557 8.0959 21.0469 8.51528 19.7741 9.35405C18.5012 10.1928 17.5434 11.3176 16.9007 12.7285L16.3324 14.0959H14.9116C13.084 14.1599 11.5209 14.84 10.2224 16.1362C8.92388 17.4324 8.27461 18.9926 8.27461 20.8169C8.27461 22.6732 8.93109 24.2588 10.2441 25.5736C11.5571 26.8885 13.1422 27.5459 14.9996 27.5459Z" fill="#2C2C2C"/>
</g>
</svg>
